<svg width="97" height="82" viewBox="0 0 97 82" fill="none" xmlns="http://www.w3.org/2000/svg">
<path fill-rule="evenodd" clip-rule="evenodd" d="M62.0712 49.5001H15.5712C18.0711 73.5001 42.5713 70.5001 57.5713 65.0001C58.238 68.0001 59.5713 74.6001 59.5713 77.0001C18.0713 92.5001 1.07121 65.5001 0.0712141 49.5001C-0.928786 33.5001 8.57121 10.0001 30.5712 10.0001C52.5712 10.0001 62.0712 20.0001 62.0712 49.5001ZM48.0713 38.0001H16.0713C16.0713 36.0001 17.5713 22.5001 33.0713 22.5001C45.4713 22.5001 48.238 32.8334 48.0713 38.0001Z" fill="#7FD858"/>
<path d="M69.1535 17.5767L48.6494 3.10121L94.8614 5.63825e-06L72.3647 39.8695L69.1535 17.5767Z" fill="#7FD858"/>
</svg>
